<?xml version="1.0" encoding="UTF-8" standalone="no"?>
<!DOCTYPE svg PUBLIC "-//W3C//DTD SVG 1.1//EN" "http://www.w3.org/Graphics/SVG/1.1/DTD/svg11.dtd">
<svg width="100%" height="100%" viewBox="0 0 100 100" version="1.1" xmlns="http://www.w3.org/2000/svg" xmlns:xlink="http://www.w3.org/1999/xlink">
  <rect x="0" y="0" width="1" height="1" />
  <rect x="0" y="1" width="1" height="1" />
  <rect x="0" y="2" width="1" height="1" />
  <rect x="0" y="3" width="1" height="1" />
  <rect x="0" y="4" width="1" height="1" />
  <rect x="0" y="5" width="1" height="1" />
  <rect x="0" y="6" width="1" height="1" />
  <rect x="0" y="7" width="1" height="1" />
  <rect x="0" y="8" width="1" height="1" />
  <rect x="0" y="9" width="1" height="1" />
  <rect x="0" y="10" width="1" height="1" />
  <rect x="0" y="11" width="1" height="1" />
  <rect x="0" y="12" width="1" height="1" />
  <rect x="0" y="13" width="1" height="1" />
  <rect x="0" y="14" width="1" height="1" />
  <rect x="0" y="15" width="1" height="1" />
  <rect x="0" y="16" width="1" height="1" />
  <rect x="0" y="17" width="1" height="1" />
  <rect x="0" y="18" width="1" height="1" />
  <rect x="0" y="19" width="1" height="1" />
  <rect x="0" y="20" width="1" height="1" />
  <rect x="0" y="21" width="1" height="1" />
  <rect x="0" y="22" width="1" height="1" />
  <rect x="0" y="23" width="1" height="1" />
  <rect x="0" y="24" width="1" height="1" />
  <rect x="0" y="25" width="1" height="1" />
  <rect x="0" y="26" width="1" height="1" />
  <rect x="0" y="27" width="1" height="1" />
  <rect x="0" y="28" width="1" height="1" />
  <rect x="0" y="29" width="1" height="1" />
  <rect x="0" y="30" width="1" height="1" />
  <rect x="0" y="31" width="1" height="1" />
  <rect x="0" y="32" width="1" height="1" />
  
  <rect x="2" y="0" width="1" height="1" />
  <rect x="2" y="1" width="1" height="1" />
  <rect x="2" y="2" width="1" height="1" />
  <rect x="2" y="3" width="1" height="1" />
  <rect x="2" y="4" width="1" height="1" />
  <rect x="2" y="5" width="1" height="1" />
  <rect x="2" y="6" width="1" height="1" />
  <rect x="2" y="7" width="1" height="1" />
  <rect x="2" y="8" width="1" height="1" />
  <rect x="2" y="9" width="1" height="1" />
  <rect x="2" y="10" width="1" height="1" />
  <rect x="2" y="11" width="1" height="1" />
  <rect x="2" y="12" width="1" height="1" />
  <rect x="2" y="13" width="1" height="1" />
  <rect x="2" y="14" width="1" height="1" />
  <rect x="2" y="15" width="1" height="1" />
  <rect x="2" y="16" width="1" height="1" />
  <rect x="2" y="17" width="1" height="1" />
  <rect x="2" y="18" width="1" height="1" />
  <rect x="2" y="19" width="1" height="1" />
  <rect x="2" y="20" width="1" height="1" />
  <rect x="2" y="21" width="1" height="1" />
  <rect x="2" y="22" width="1" height="1" />
  <rect x="2" y="23" width="1" height="1" />
  <rect x="2" y="24" width="1" height="1" />
  <rect x="2" y="25" width="1" height="1" />
  <rect x="2" y="26" width="1" height="1" />
  <rect x="2" y="27" width="1" height="1" />
  <rect x="2" y="28" width="1" height="1" />
  <rect x="2" y="29" width="1" height="1" />
  <rect x="2" y="30" width="1" height="1" />
  <rect x="2" y="31" width="1" height="1" />
  <rect x="2" y="32" width="1" height="1" />
  
  <rect x="4" y="0" width="1" height="1" />
  <rect x="4" y="1" width="1" height="1" />
  <rect x="4" y="2" width="1" height="1" />
  <rect x="4" y="3" width="1" height="1" />
  <rect x="4" y="4" width="1" height="1" />
  <rect x="4" y="5" width="1" height="1" />
  <rect x="4" y="6" width="1" height="1" />
  <rect x="4" y="7" width="1" height="1" />
  <rect x="4" y="8" width="1" height="1" />
  <rect x="4" y="9" width="1" height="1" />
  <rect x="4" y="10" width="1" height="1" />
  <rect x="4" y="11" width="1" height="1" />
  <rect x="4" y="12" width="1" height="1" />
  <rect x="4" y="13" width="1" height="1" />
  <rect x="4" y="14" width="1" height="1" />
  <rect x="4" y="15" width="1" height="1" />
  <rect x="4" y="16" width="1" height="1" />
  <rect x="4" y="17" width="1" height="1" />
  <rect x="4" y="18" width="1" height="1" />
  <rect x="4" y="19" width="1" height="1" />
  <rect x="4" y="20" width="1" height="1" />
  <rect x="4" y="21" width="1" height="1" />
  <rect x="4" y="22" width="1" height="1" />
  <rect x="4" y="23" width="1" height="1" />
  <rect x="4" y="24" width="1" height="1" />
  <rect x="4" y="25" width="1" height="1" />
  <rect x="4" y="26" width="1" height="1" />
  <rect x="4" y="27" width="1" height="1" />
  <rect x="4" y="28" width="1" height="1" />
  <rect x="4" y="29" width="1" height="1" />
  <rect x="4" y="30" width="1" height="1" />
  <rect x="4" y="31" width="1" height="1" />
  <rect x="4" y="32" width="1" height="1" />
  
  <rect x="6" y="0" width="1" height="1" />
  <rect x="6" y="1" width="1" height="1" />
  <rect x="6" y="2" width="1" height="1" />
  <rect x="6" y="3" width="1" height="1" />
  <rect x="6" y="4" width="1" height="1" />
  <rect x="6" y="5" width="1" height="1" />
  <rect x="6" y="6" width="1" height="1" />
  <rect x="6" y="7" width="1" height="1" />
  <rect x="6" y="8" width="1" height="1" />
  <rect x="6" y="9" width="1" height="1" />
  <rect x="6" y="10" width="1" height="1" />
  <rect x="6" y="11" width="1" height="1" />
  <rect x="6" y="12" width="1" height="1" />
  <rect x="6" y="13" width="1" height="1" />
  <rect x="6" y="14" width="1" height="1" />
  <rect x="6" y="15" width="1" height="1" />
  <rect x="6" y="16" width="1" height="1" />
  <rect x="6" y="17" width="1" height="1" />
  <rect x="6" y="18" width="1" height="1" />
  <rect x="6" y="19" width="1" height="1" />
  <rect x="6" y="20" width="1" height="1" />
  <rect x="6" y="21" width="1" height="1" />
  <rect x="6" y="22" width="1" height="1" />
  <rect x="6" y="23" width="1" height="1" />
  <rect x="6" y="24" width="1" height="1" />
  <rect x="6" y="25" width="1" height="1" />
  <rect x="6" y="26" width="1" height="1" />
  <rect x="6" y="27" width="1" height="1" />
  <rect x="6" y="28" width="1" height="1" />
  <rect x="6" y="29" width="1" height="1" />
  <rect x="6" y="30" width="1" height="1" />
  <rect x="6" y="31" width="1" height="1" />
  <rect x="6" y="32" width="1" height="1" />
  
  <rect x="8" y="0" width="1" height="1" />
  <rect x="8" y="1" width="1" height="1" />
  <rect x="8" y="2" width="1" height="1" />
  <rect x="8" y="3" width="1" height="1" />
  <rect x="8" y="4" width="1" height="1" />
  <rect x="8" y="5" width="1" height="1" />
  <rect x="8" y="6" width="1" height="1" />
  <rect x="8" y="7" width="1" height="1" />
  <rect x="8" y="8" width="1" height="1" />
  <rect x="8" y="9" width="1" height="1" />
  <rect x="8" y="10" width="1" height="1" />
  <rect x="8" y="11" width="1" height="1" />
  <rect x="8" y="12" width="1" height="1" />
  <rect x="8" y="13" width="1" height="1" />
  <rect x="8" y="14" width="1" height="1" />
  <rect x="8" y="15" width="1" height="1" />
  <rect x="8" y="16" width="1" height="1" />
  <rect x="8" y="17" width="1" height="1" />
  <rect x="8" y="18" width="1" height="1" />
  <rect x="8" y="19" width="1" height="1" />
  <rect x="8" y="20" width="1" height="1" />
  <rect x="8" y="21" width="1" height="1" />
  <rect x="8" y="22" width="1" height="1" />
  <rect x="8" y="23" width="1" height="1" />
  <rect x="8" y="24" width="1" height="1" />
  <rect x="8" y="25" width="1" height="1" />
  <rect x="8" y="26" width="1" height="1" />
  <rect x="8" y="27" width="1" height="1" />
  <rect x="8" y="28" width="1" height="1" />
  <rect x="8" y="29" width="1" height="1" />
  <rect x="8" y="30" width="1" height="1" />
  <rect x="8" y="31" width="1" height="1" />
  <rect x="8" y="32" width="1" height="1" />
  
  <rect x="10" y="0" width="1" height="1" />
  <rect x="10" y="1" width="1" height="1" />
  <rect x="10" y="2" width="1" height="1" />
  <rect x="10" y="3" width="1" height="1" />
  <rect x="10" y="4" width="1" height="1" />
  <rect x="10" y="5" width="1" height="1" />
  <rect x="10" y="6" width="1" height="1" />
  <rect x="10" y="7" width="1" height="1" />
  <rect x="10" y="8" width="1" height="1" />
  <rect x="10" y="9" width="1" height="1" />
  <rect x="10" y="10" width="1" height="1" />
  <rect x="10" y="11" width="1" height="1" />
  <rect x="10" y="12" width="1" height="1" />
  <rect x="10" y="13" width="1" height="1" />
  <rect x="10" y="14" width="1" height="1" />
  <rect x="10" y="15" width="1" height="1" />
  <rect x="10" y="16" width="1" height="1" />
  <rect x="10" y="17" width="1" height="1" />
  <rect x="10" y="18" width="1" height="1" />
  <rect x="10" y="19" width="1" height="1" />
  <rect x="10" y="20" width="1" height="1" />
  <rect x="10" y="21" width="1" height="1" />
  <rect x="10" y="22" width="1" height="1" />
  <rect x="10" y="23" width="1" height="1" />
  <rect x="10" y="24" width="1" height="1" />
  <rect x="10" y="25" width="1" height="1" />
  <rect x="10" y="26" width="1" height="1" />
  <rect x="10" y="27" width="1" height="1" />
  <rect x="10" y="28" width="1" height="1" />
  <rect x="10" y="29" width="1" height="1" />
  <rect x="10" y="30" width="1" height="1" />
  <rect x="10" y="31" width="1" height="1" />
  <rect x="10" y="32" width="1" height="1" />
  
  <rect x="12" y="0" width="1" height="1" />
  <rect x="12" y="1" width="1" height="1" />
  <rect x="12" y="2" width="1" height="1" />
  <rect x="12" y="3" width="1" height="1" />
  <rect x="12" y="4" width="1" height="1" />
  <rect x="12" y="5" width="1" height="1" />
  <rect x="12" y="6" width="1" height="1" />
  <rect x="12" y="7" width="1" height="1" />
  <rect x="12" y="8" width="1" height="1" />
  <rect x="12" y="9" width="1" height="1" />
  <rect x="12" y="10" width="1" height="1" />
  <rect x="12" y="11" width="1" height="1" />
  <rect x="12" y="12" width="1" height="1" />
  <rect x="12" y="13" width="1" height="1" />
  <rect x="12" y="14" width="1" height="1" />
  <rect x="12" y="15" width="1" height="1" />
  <rect x="12" y="16" width="1" height="1" />
  <rect x="12" y="17" width="1" height="1" />
  <rect x="12" y="18" width="1" height="1" />
  <rect x="12" y="19" width="1" height="1" />
  <rect x="12" y="20" width="1" height="1" />
  <rect x="12" y="21" width="1" height="1" />
  <rect x="12" y="22" width="1" height="1" />
  <rect x="12" y="23" width="1" height="1" />
  <rect x="12" y="24" width="1" height="1" />
  <rect x="12" y="25" width="1" height="1" />
  <rect x="12" y="26" width="1" height="1" />
  <rect x="12" y="27" width="1" height="1" />
  <rect x="12" y="28" width="1" height="1" />
  <rect x="12" y="29" width="1" height="1" />
  <rect x="12" y="30" width="1" height="1" />
  <rect x="12" y="31" width="1" height="1" />
  <rect x="12" y="32" width="1" height="1" />
  
  <rect x="14" y="0" width="1" height="1" />
  <rect x="14" y="1" width="1" height="1" />
  <rect x="14" y="2" width="1" height="1" />
  <rect x="14" y="3" width="1" height="1" />
  <rect x="14" y="4" width="1" height="1" />
  <rect x="14" y="5" width="1" height="1" />
  <rect x="14" y="6" width="1" height="1" />
  <rect x="14" y="7" width="1" height="1" />
  <rect x="14" y="8" width="1" height="1" />
  <rect x="14" y="9" width="1" height="1" />
  <rect x="14" y="10" width="1" height="1" />
  <rect x="14" y="11" width="1" height="1" />
  <rect x="14" y="12" width="1" height="1" />
  <rect x="14" y="13" width="1" height="1" />
  <rect x="14" y="14" width="1" height="1" />
  <rect x="14" y="15" width="1" height="1" />
  <rect x="14" y="16" width="1" height="1" />
  <rect x="14" y="17" width="1" height="1" />
  <rect x="14" y="18" width="1" height="1" />
  <rect x="14" y="19" width="1" height="1" />
  <rect x="14" y="20" width="1" height="1" />
  <rect x="14" y="21" width="1" height="1" />
  <rect x="14" y="22" width="1" height="1" />
  <rect x="14" y="23" width="1" height="1" />
  <rect x="14" y="24" width="1" height="1" />
  <rect x="14" y="25" width="1" height="1" />
  <rect x="14" y="26" width="1" height="1" />
  <rect x="14" y="27" width="1" height="1" />
  <rect x="14" y="28" width="1" height="1" />
  <rect x="14" y="29" width="1" height="1" />
  <rect x="14" y="30" width="1" height="1" />
  <rect x="14" y="31" width="1" height="1" />
  <rect x="14" y="32" width="1" height="1" />
  
  <rect x="16" y="0" width="1" height="1" />
  <rect x="16" y="1" width="1" height="1" />
  <rect x="16" y="2" width="1" height="1" />
  <rect x="16" y="3" width="1" height="1" />
  <rect x="16" y="4" width="1" height="1" />
  <rect x="16" y="5" width="1" height="1" />
  <rect x="16" y="6" width="1" height="1" />
  <rect x="16" y="7" width="1" height="1" />
  <rect x="16" y="8" width="1" height="1" />
  <rect x="16" y="9" width="1" height="1" />
  <rect x="16" y="10" width="1" height="1" />
  <rect x="16" y="11" width="1" height="1" />
  <rect x="16" y="12" width="1" height="1" />
  <rect x="16" y="13" width="1" height="1" />
  <rect x="16" y="14" width="1" height="1" />
  <rect x="16" y="15" width="1" height="1" />
  <rect x="16" y="16" width="1" height="1" />
  <rect x="16" y="17" width="1" height="1" />
  <rect x="16" y="18" width="1" height="1" />
  <rect x="16" y="19" width="1" height="1" />
  <rect x="16" y="20" width="1" height="1" />
  <rect x="16" y="21" width="1" height="1" />
  <rect x="16" y="22" width="1" height="1" />
  <rect x="16" y="23" width="1" height="1" />
  <rect x="16" y="24" width="1" height="1" />
  <rect x="16" y="25" width="1" height="1" />
  <rect x="16" y="26" width="1" height="1" />
  <rect x="16" y="27" width="1" height="1" />
  <rect x="16" y="28" width="1" height="1" />
  <rect x="16" y="29" width="1" height="1" />
  <rect x="16" y="30" width="1" height="1" />
  <rect x="16" y="31" width="1" height="1" />
  <rect x="16" y="32" width="1" height="1" />
  
  <rect x="18" y="0" width="1" height="1" />
  <rect x="18" y="1" width="1" height="1" />
  <rect x="18" y="2" width="1" height="1" />
  <rect x="18" y="3" width="1" height="1" />
  <rect x="18" y="4" width="1" height="1" />
  <rect x="18" y="5" width="1" height="1" />
  <rect x="18" y="6" width="1" height="1" />
  <rect x="18" y="7" width="1" height="1" />
  <rect x="18" y="8" width="1" height="1" />
  <rect x="18" y="9" width="1" height="1" />
  <rect x="18" y="10" width="1" height="1" />
  <rect x="18" y="11" width="1" height="1" />
  <rect x="18" y="12" width="1" height="1" />
  <rect x="18" y="13" width="1" height="1" />
  <rect x="18" y="14" width="1" height="1" />
  <rect x="18" y="15" width="1" height="1" />
  <rect x="18" y="16" width="1" height="1" />
  <rect x="18" y="17" width="1" height="1" />
  <rect x="18" y="18" width="1" height="1" />
  <rect x="18" y="19" width="1" height="1" />
  <rect x="18" y="20" width="1" height="1" />
  <rect x="18" y="21" width="1" height="1" />
  <rect x="18" y="22" width="1" height="1" />
  <rect x="18" y="23" width="1" height="1" />
  <rect x="18" y="24" width="1" height="1" />
  <rect x="18" y="25" width="1" height="1" />
  <rect x="18" y="26" width="1" height="1" />
  <rect x="18" y="27" width="1" height="1" />
  <rect x="18" y="28" width="1" height="1" />
  <rect x="18" y="29" width="1" height="1" />
  <rect x="18" y="30" width="1" height="1" />
  <rect x="18" y="31" width="1" height="1" />
  <rect x="18" y="32" width="1" height="1" />
  
  <rect x="20" y="0" width="1" height="1" />
  <rect x="20" y="1" width="1" height="1" />
  <rect x="20" y="2" width="1" height="1" />
  <rect x="20" y="3" width="1" height="1" />
  <rect x="20" y="4" width="1" height="1" />
  <rect x="20" y="5" width="1" height="1" />
  <rect x="20" y="6" width="1" height="1" />
  <rect x="20" y="7" width="1" height="1" />
  <rect x="20" y="8" width="1" height="1" />
  <rect x="20" y="9" width="1" height="1" />
  <rect x="20" y="10" width="1" height="1" />
  <rect x="20" y="11" width="1" height="1" />
  <rect x="20" y="12" width="1" height="1" />
  <rect x="20" y="13" width="1" height="1" />
  <rect x="20" y="14" width="1" height="1" />
  <rect x="20" y="15" width="1" height="1" />
  <rect x="20" y="16" width="1" height="1" />
  <rect x="20" y="17" width="1" height="1" />
  <rect x="20" y="18" width="1" height="1" />
  <rect x="20" y="19" width="1" height="1" />
  <rect x="20" y="20" width="1" height="1" />
  <rect x="20" y="21" width="1" height="1" />
  <rect x="20" y="22" width="1" height="1" />
  <rect x="20" y="23" width="1" height="1" />
  <rect x="20" y="24" width="1" height="1" />
  <rect x="20" y="25" width="1" height="1" />
  <rect x="20" y="26" width="1" height="1" />
  <rect x="20" y="27" width="1" height="1" />
  <rect x="20" y="28" width="1" height="1" />
  <rect x="20" y="29" width="1" height="1" />
  <rect x="20" y="30" width="1" height="1" />
  <rect x="20" y="31" width="1" height="1" />
  <rect x="20" y="32" width="1" height="1" />
  
  <rect x="22" y="0" width="1" height="1" />
  <rect x="22" y="1" width="1" height="1" />
  <rect x="22" y="2" width="1" height="1" />
  <rect x="22" y="3" width="1" height="1" />
  <rect x="22" y="4" width="1" height="1" />
  <rect x="22" y="5" width="1" height="1" />
  <rect x="22" y="6" width="1" height="1" />
  <rect x="22" y="7" width="1" height="1" />
  <rect x="22" y="8" width="1" height="1" />
  <rect x="22" y="9" width="1" height="1" />
  <rect x="22" y="10" width="1" height="1" />
  <rect x="22" y="11" width="1" height="1" />
  <rect x="22" y="12" width="1" height="1" />
  <rect x="22" y="13" width="1" height="1" />
  <rect x="22" y="14" width="1" height="1" />
  <rect x="22" y="15" width="1" height="1" />
  <rect x="22" y="16" width="1" height="1" />
  <rect x="22" y="17" width="1" height="1" />
  <rect x="22" y="18" width="1" height="1" />
  <rect x="22" y="19" width="1" height="1" />
  <rect x="22" y="20" width="1" height="1" />
  <rect x="22" y="21" width="1" height="1" />
  <rect x="22" y="22" width="1" height="1" />
  <rect x="22" y="23" width="1" height="1" />
  <rect x="22" y="24" width="1" height="1" />
  <rect x="22" y="25" width="1" height="1" />
  <rect x="22" y="26" width="1" height="1" />
  <rect x="22" y="27" width="1" height="1" />
  <rect x="22" y="28" width="1" height="1" />
  <rect x="22" y="29" width="1" height="1" />
  <rect x="22" y="30" width="1" height="1" />
  <rect x="22" y="31" width="1" height="1" />
  <rect x="22" y="32" width="1" height="1" />
  
  <rect x="24" y="0" width="1" height="1" />
  <rect x="24" y="1" width="1" height="1" />
  <rect x="24" y="2" width="1" height="1" />
  <rect x="24" y="3" width="1" height="1" />
  <rect x="24" y="4" width="1" height="1" />
  <rect x="24" y="5" width="1" height="1" />
  <rect x="24" y="6" width="1" height="1" />
  <rect x="24" y="7" width="1" height="1" />
  <rect x="24" y="8" width="1" height="1" />
  <rect x="24" y="9" width="1" height="1" />
  <rect x="24" y="10" width="1" height="1" />
  <rect x="24" y="11" width="1" height="1" />
  <rect x="24" y="12" width="1" height="1" />
  <rect x="24" y="13" width="1" height="1" />
  <rect x="24" y="14" width="1" height="1" />
  <rect x="24" y="15" width="1" height="1" />
  <rect x="24" y="16" width="1" height="1" />
  <rect x="24" y="17" width="1" height="1" />
  <rect x="24" y="18" width="1" height="1" />
  <rect x="24" y="19" width="1" height="1" />
  <rect x="24" y="20" width="1" height="1" />
  <rect x="24" y="21" width="1" height="1" />
  <rect x="24" y="22" width="1" height="1" />
  <rect x="24" y="23" width="1" height="1" />
  <rect x="24" y="24" width="1" height="1" />
  <rect x="24" y="25" width="1" height="1" />
  <rect x="24" y="26" width="1" height="1" />
  <rect x="24" y="27" width="1" height="1" />
  <rect x="24" y="28" width="1" height="1" />
  <rect x="24" y="29" width="1" height="1" />
  <rect x="24" y="30" width="1" height="1" />
  <rect x="24" y="31" width="1" height="1" />
  <rect x="24" y="32" width="1" height="1" />
  
  <rect x="26" y="0" width="1" height="1" />
  <rect x="26" y="1" width="1" height="1" />
  <rect x="26" y="2" width="1" height="1" />
  <rect x="26" y="3" width="1" height="1" />
  <rect x="26" y="4" width="1" height="1" />
  <rect x="26" y="5" width="1" height="1" />
  <rect x="26" y="6" width="1" height="1" />
  <rect x="26" y="7" width="1" height="1" />
  <rect x="26" y="8" width="1" height="1" />
  <rect x="26" y="9" width="1" height="1" />
  <rect x="26" y="10" width="1" height="1" />
  <rect x="26" y="11" width="1" height="1" />
  <rect x="26" y="12" width="1" height="1" />
  <rect x="26" y="13" width="1" height="1" />
  <rect x="26" y="14" width="1" height="1" />
  <rect x="26" y="15" width="1" height="1" />
  <rect x="26" y="16" width="1" height="1" />
  <rect x="26" y="17" width="1" height="1" />
  <rect x="26" y="18" width="1" height="1" />
  <rect x="26" y="19" width="1" height="1" />
  <rect x="26" y="20" width="1" height="1" />
  <rect x="26" y="21" width="1" height="1" />
  <rect x="26" y="22" width="1" height="1" />
  <rect x="26" y="23" width="1" height="1" />
  <rect x="26" y="24" width="1" height="1" />
  <rect x="26" y="25" width="1" height="1" />
  <rect x="26" y="26" width="1" height="1" />
  <rect x="26" y="27" width="1" height="1" />
  <rect x="26" y="28" width="1" height="1" />
  <rect x="26" y="29" width="1" height="1" />
  <rect x="26" y="30" width="1" height="1" />
  <rect x="26" y="31" width="1" height="1" />
  <rect x="26" y="32" width="1" height="1" />
  
  <rect x="28" y="0" width="1" height="1" />
  <rect x="28" y="1" width="1" height="1" />
  <rect x="28" y="2" width="1" height="1" />
  <rect x="28" y="3" width="1" height="1" />
  <rect x="28" y="4" width="1" height="1" />
  <rect x="28" y="5" width="1" height="1" />
  <rect x="28" y="6" width="1" height="1" />
  <rect x="28" y="7" width="1" height="1" />
  <rect x="28" y="8" width="1" height="1" />
  <rect x="28" y="9" width="1" height="1" />
  <rect x="28" y="10" width="1" height="1" />
  <rect x="28" y="11" width="1" height="1" />
  <rect x="28" y="12" width="1" height="1" />
  <rect x="28" y="13" width="1" height="1" />
  <rect x="28" y="14" width="1" height="1" />
  <rect x="28" y="15" width="1" height="1" />
  <rect x="28" y="16" width="1" height="1" />
  <rect x="28" y="17" width="1" height="1" />
  <rect x="28" y="18" width="1" height="1" />
  <rect x="28" y="19" width="1" height="1" />
  <rect x="28" y="20" width="1" height="1" />
  <rect x="28" y="21" width="1" height="1" />
  <rect x="28" y="22" width="1" height="1" />
  <rect x="28" y="23" width="1" height="1" />
  <rect x="28" y="24" width="1" height="1" />
  <rect x="28" y="25" width="1" height="1" />
  <rect x="28" y="26" width="1" height="1" />
  <rect x="28" y="27" width="1" height="1" />
  <rect x="28" y="28" width="1" height="1" />
  <rect x="28" y="29" width="1" height="1" />
  <rect x="28" y="30" width="1" height="1" />
  <rect x="28" y="31" width="1" height="1" />
  <rect x="28" y="32" width="1" height="1" />
  
  <rect x="30" y="0" width="1" height="1" />
  <rect x="30" y="1" width="1" height="1" />
  <rect x="30" y="2" width="1" height="1" />
  <rect x="30" y="3" width="1" height="1" />
  <rect x="30" y="4" width="1" height="1" />
  <rect x="30" y="5" width="1" height="1" />
  <rect x="30" y="6" width="1" height="1" />
  <rect x="30" y="7" width="1" height="1" />
  <rect x="30" y="8" width="1" height="1" />
  <rect x="30" y="9" width="1" height="1" />
  <rect x="30" y="10" width="1" height="1" />
  <rect x="30" y="11" width="1" height="1" />
  <rect x="30" y="12" width="1" height="1" />
  <rect x="30" y="13" width="1" height="1" />
  <rect x="30" y="14" width="1" height="1" />
  <rect x="30" y="15" width="1" height="1" />
  <rect x="30" y="16" width="1" height="1" />
  <rect x="30" y="17" width="1" height="1" />
  <rect x="30" y="18" width="1" height="1" />
  <rect x="30" y="19" width="1" height="1" />
  <rect x="30" y="20" width="1" height="1" />
  <rect x="30" y="21" width="1" height="1" />
  <rect x="30" y="22" width="1" height="1" />
  <rect x="30" y="23" width="1" height="1" />
  <rect x="30" y="24" width="1" height="1" />
  <rect x="30" y="25" width="1" height="1" />
  <rect x="30" y="26" width="1" height="1" />
  <rect x="30" y="27" width="1" height="1" />
  <rect x="30" y="28" width="1" height="1" />
  <rect x="30" y="29" width="1" height="1" />
  <rect x="30" y="30" width="1" height="1" />
  <rect x="30" y="31" width="1" height="1" />
  <rect x="30" y="32" width="1" height="1" />
  
  <rect x="32" y="0" width="1" height="1" />
  <rect x="32" y="1" width="1" height="1" />
  <rect x="32" y="2" width="1" height="1" />
  <rect x="32" y="3" width="1" height="1" />
  <rect x="32" y="4" width="1" height="1" />
  <rect x="32" y="5" width="1" height="1" />
  <rect x="32" y="6" width="1" height="1" />
  <rect x="32" y="7" width="1" height="1" />
  <rect x="32" y="8" width="1" height="1" />
  <rect x="32" y="9" width="1" height="1" />
  <rect x="32" y="10" width="1" height="1" />
  <rect x="32" y="11" width="1" height="1" />
  <rect x="32" y="12" width="1" height="1" />
  <rect x="32" y="13" width="1" height="1" />
  <rect x="32" y="14" width="1" height="1" />
  <rect x="32" y="15" width="1" height="1" />
  <rect x="32" y="16" width="1" height="1" />
  <rect x="32" y="17" width="1" height="1" />
  <rect x="32" y="18" width="1" height="1" />
  <rect x="32" y="19" width="1" height="1" />
  <rect x="32" y="20" width="1" height="1" />
  <rect x="32" y="21" width="1" height="1" />
  <rect x="32" y="22" width="1" height="1" />
  <rect x="32" y="23" width="1" height="1" />
  <rect x="32" y="24" width="1" height="1" />
  <rect x="32" y="25" width="1" height="1" />
  <rect x="32" y="26" width="1" height="1" />
  <rect x="32" y="27" width="1" height="1" />
  <rect x="32" y="28" width="1" height="1" />
  <rect x="32" y="29" width="1" height="1" />
  <rect x="32" y="30" width="1" height="1" />
  <rect x="32" y="31" width="1" height="1" />
  <rect x="32" y="32" width="1" height="1" />
  
</svg>